<?xml version="1.0" encoding="utf-8"?>
<!-- Generator: Adobe Illustrator 18.1.1, SVG Export Plug-In . SVG Version: 6.00 Build 0)  -->
<svg version="1.1" id="Layer_1" xmlns="http://www.w3.org/2000/svg" xmlns:xlink="http://www.w3.org/1999/xlink" x="0px" y="0px"
	 viewBox="0 0 640 480" enable-background="new 0 0 640 480" xml:space="preserve">
<g id="Rounded_Rectangle_7_4_">
	<g opacity="0.75">
		<path fill-rule="evenodd" clip-rule="evenodd" d="M403.3,167h-130c-2.8,0-5,2.2-5,5v26c0,2.8,2.2,5,5,5h130c2.8,0,5-2.2,5-5v-26
			C408.3,169.3,406.1,167,403.3,167z"/>
	</g>
	<g>
		<g>
			<path fill-rule="evenodd" clip-rule="evenodd" fill="#525863" d="M402.3,166h-130c-2.8,0-5,2.2-5,5v26c0,2.8,2.2,5,5,5h130
				c2.8,0,5-2.2,5-5v-26C407.3,168.3,405.1,166,402.3,166z"/>
		</g>
	</g>
</g>
<g>
	<g opacity="0.75">
		<rect x="301.6" y="176.7" fill="none" width="176.3" height="49.3"/>
		<text transform="matrix(1 0 0 1 301.5739 191.9412)" font-family="'OpenSans-Bold'" font-size="20">Submit</text>
	</g>
	<g>
		<rect x="300.6" y="175.7" fill="none" width="176.3" height="49.3"/>
		<text transform="matrix(1 0 0 1 300.5739 190.9412)" fill="#FFFFFF" font-family="'OpenSans-Bold'" font-size="20">Submit</text>
	</g>
</g>
</svg>
